[img]http://img23.imageshack.us/img23/2590/animatedq.gif[/img]

[img]http://m.uploadedit.com/b93/39384620.gif[/img]

[img]http://img833.imageshack.us/img833/6899/shinf.jpg[/img]

[img]http://img854.imageshack.us/img854/1164/infs.png[/img]

Story: Shinchan and his friends go on a cruise with their parents and generally have a ball, until the adults are abducted by a bunch of monkeys and deported to a mysterious island to end up as slaves for the evil jungle king. Will the kids be able to save the adults who include Shinchan's idol, superhero Action Kamen? 

Direction: Yuji Muto
Genre: Animation
Duration: 1 hour 40 minutes

[color=red][size=6]Note: IMDB link is actually for its Japanese version so dont comment on it If You wanna know more about this movie Just Take help of Google Uncle[/size][/color]


Format                                  : AVI
Format/Info                     : Audio Video Interleave
File size                       : 498 MiB
Duration                                : 1h 23mn
Overall bit rate                        : 834 Kbps

[img]http://img696.imageshack.us/img696/241/windowsmediaplayerfile.png[/img]

ID                                      : 0
Format                                  : MPEG-4 Visual
Format profile                          : Advanced Simple@L5
Format settings, BVOP           : 2
Format settings, QPel           : No
Format settings, GMC                    : No warppoints
Format settings, Matrix         : Default (H.263)
Codec ID                                : XVID
Codec ID/Hint                   : XviD
Duration                                : 1h 23mn
Bit rate                                : 699 Kbps
Width                           : 512 pixels
Height                                  : 384 pixels
Display aspect ratio                    : 4:3
Frame rate                              : 30.000 fps
Color space                     : YUV
Chroma subsampling                      : 4:2:0
Bit depth                       : 8 bits
Scan type                       : Progressive
Compression mode                        : Lossy
Bits/(Pixel*Frame)                      : 0.118
Stream size                     : 417 MiB (84%)
Writing library                 : XviD 1.2.1 (UTC 2008-12-04)

[img]http://img40.imageshack.us/img40/899/musicfile1o.png[/img]

Audio
ID                                      : 1
Format                                  : MPEG Audio
Format version                          : Version 1
Format profile                          : Layer 3
Mode                                    : Joint stereo
Mode extension                          : MS Stereo
Codec ID                                : 55
Codec ID/Hint                   : MP3
Duration                                : 1h 23mn
Bit rate mode                   : Constant
Bit rate                                : 128 Kbps
Channel(s)                              : 2 channels
Sampling rate                   : 44.1 KHz
Compression mode                        : Lossy
Stream size                     : 76.4 MiB (15%)
Alignment                       : Aligned on interleaves
Interleave, duration                    : 133 ms (4.00 video frames)
Interleave, preload duration    : 208 ms
Title                           : SC
Writing library                 : LAME3.98r
Encoding settings               : -m j -V 4 -q 2 -lowpass 17 -b 128

[img]http://img193.imageshack.us/img193/8356/screensin.png[/img]

[img]http://img827.imageshack.us/img827/1835/27400371.png[/img]

[img]http://img837.imageshack.us/img837/8227/52055335.png[/img]

[img]http://img189.imageshack.us/img189/1073/69747543.png[/img]

[img]http://img38.imageshack.us/img38/284/18782188.png[/img]

[img]http://img215.imageshack.us/img215/7371/62475868.png[/img]

[img]http://img195.imageshack.us/img195/2698/33399112.png[/img]

[img]http://img6.imageshack.us/img6/4898/61343706.png[/img]

[img]http://img23.imageshack.us/img23/6307/36306359.png[/img]

[img]http://img200.imageshack.us/img200/3065/99185333.png[/img]

[img]http://img812.imageshack.us/img812/7153/s10j.png[/img]

[img]http://img202.imageshack.us/img202/1290/s11l.png[/img]

[img]http://img6.imageshack.us/img6/9867/s12bq.png[/img]

[color=teal][size=6]SPECIAL THANKS TO[/size][/color]

[color=green][size=7]PRINCE26121991 BHAI[/size][/color] :-)

[img]http://m.uploadedit.com/b93/23449062.gif[/img]

[color=red][size=7][font=System]& DON'T FORGET TO ADD COMMENTS FRNDS IT WILL ENCOURAGE US ......

& PLZ. GIVE REVIEWS IF YOU LIKE OUR UPLOAD[/font][/size][/color]
[img]http://img151.imageshack.us/img151/415/downtt.gif[/img]
